<svg width="18" height="18" viewBox="0 0 18 18" fill="none" xmlns="http://www.w3.org/2000/svg">
<g opacity="0.55">
<path d="M15.4001 6.60001H8.2001C7.31644 6.60001 6.6001 7.31635 6.6001 8.20001V15.4C6.6001 16.2837 7.31644 17 8.2001 17H15.4001C16.2838 17 17.0001 16.2837 17.0001 15.4V8.20001C17.0001 7.31635 16.2838 6.60001 15.4001 6.60001Z" stroke="white" stroke-linecap="round" stroke-linejoin="round"/>
<path d="M3.4 11.4H2.6C2.17565 11.4 1.76869 11.2314 1.46863 10.9314C1.16857 10.6313 1 10.2243 1 9.8V2.6C1 2.17565 1.16857 1.76869 1.46863 1.46863C1.76869 1.16857 2.17565 1 2.6 1H9.8C10.2243 1 10.6313 1.16857 10.9314 1.46863C11.2314 1.76869 11.4 2.17565 11.4 2.6V3.4" stroke="white" stroke-linecap="round" stroke-linejoin="round"/>
</g>
</svg>
