<svg width="383" height="49" viewBox="0 0 383 49" fill="none" xmlns="http://www.w3.org/2000/svg">
<path opacity="0.2" d="M365.382 48.4413C361.643 48.4413 358.42 47.7269 355.715 46.298C353.024 44.8539 350.949 42.7866 349.49 40.0961C348.046 37.3903 347.324 34.1525 347.324 30.3827C347.324 26.7649 348.053 23.6031 349.513 20.8974C350.972 18.1916 353.032 16.0863 355.692 14.5814C358.352 13.0765 361.491 12.3241 365.109 12.3241C367.754 12.3241 370.148 12.7345 372.291 13.5554C374.434 14.3762 376.266 15.5695 377.786 17.1352C379.306 18.6857 380.477 20.5706 381.298 22.7899C382.118 25.0092 382.529 27.5098 382.529 30.2915V33.2101H351.246V26.2785H370.946C370.931 25.2752 370.672 24.3936 370.171 23.6335C369.684 22.8583 369.023 22.2579 368.187 21.8322C367.366 21.3914 366.431 21.171 365.382 21.171C364.364 21.171 363.429 21.3914 362.578 21.8322C361.727 22.2579 361.042 22.8507 360.526 23.6107C360.024 24.3708 359.758 25.26 359.728 26.2785V33.7573C359.728 34.8822 359.963 35.8854 360.434 36.7671C360.906 37.6487 361.582 38.3404 362.464 38.842C363.345 39.3436 364.41 39.5944 365.656 39.5944C366.522 39.5944 367.313 39.4728 368.027 39.2296C368.757 38.9864 369.38 38.6368 369.897 38.1808C370.414 37.7095 370.794 37.1471 371.037 36.4935H382.529C382.134 38.9256 381.199 41.0385 379.724 42.8322C378.25 44.6107 376.297 45.994 373.864 46.9821C371.447 47.9549 368.62 48.4413 365.382 48.4413Z" fill="white"/>
<path opacity="0.2" d="M291.115 47.8029V12.7801H303.063V19.4381H303.428C304.158 17.2492 305.404 15.5163 307.167 14.2394C308.931 12.9625 311.028 12.3241 313.461 12.3241C315.923 12.3241 318.044 12.9777 319.822 14.285C321.601 15.5771 322.672 17.2948 323.037 19.4381H323.402C323.995 17.2948 325.256 15.5771 327.187 14.285C329.117 12.9777 331.382 12.3241 333.982 12.3241C337.341 12.3241 340.062 13.4034 342.145 15.5619C344.242 17.7204 345.291 20.5934 345.291 24.1808V47.8029H332.705V27.3729C332.705 25.8377 332.317 24.6368 331.542 23.7703C330.767 22.8887 329.725 22.4479 328.418 22.4479C327.126 22.4479 326.1 22.8887 325.34 23.7703C324.595 24.6368 324.223 25.8377 324.223 27.3729V47.8029H312.184V27.3729C312.184 25.8377 311.796 24.6368 311.021 23.7703C310.245 22.8887 309.204 22.4479 307.897 22.4479C307.031 22.4479 306.286 22.6455 305.662 23.0407C305.039 23.4359 304.553 24.006 304.203 24.7508C303.869 25.4804 303.702 26.3545 303.702 27.3729V47.8029H291.115Z" fill="white"/>
<path opacity="0.1" d="M279.359 48.188C277.595 48.188 276.083 47.5724 274.821 46.3411C273.575 45.0946 272.959 43.5822 272.974 41.8037C272.959 40.0708 273.575 38.5887 274.821 37.3574C276.083 36.1261 277.595 35.5105 279.359 35.5105C281.031 35.5105 282.505 36.1261 283.782 37.3574C285.074 38.5887 285.728 40.0708 285.743 41.8037C285.728 42.9893 285.416 44.0686 284.808 45.0414C284.215 45.9991 283.44 46.7667 282.483 47.3444C281.525 47.9068 280.484 48.188 279.359 48.188Z" fill="white"/>
<path opacity="0.2" d="M244.892 28.2951V47.9955H232.306V1.2984H244.436V19.6306H244.801C245.591 17.3961 246.906 15.6556 248.745 14.4091C250.585 13.1475 252.796 12.5166 255.381 12.5166C257.858 12.5166 260.009 13.0791 261.833 14.2039C263.673 15.3288 265.094 16.8793 266.097 18.8554C267.116 20.8315 267.617 23.0964 267.602 25.6502V47.9955H255.016V28.2951C255.031 26.5622 254.598 25.2018 253.716 24.2137C252.85 23.2256 251.611 22.7316 249.999 22.7316C248.981 22.7316 248.084 22.9596 247.309 23.4157C246.549 23.8565 245.956 24.4949 245.53 25.331C245.12 26.1518 244.907 27.1399 244.892 28.2951Z" fill="white"/>
<path opacity="0.3" d="M218.506 48.4413C214.706 48.4413 211.453 47.6889 208.747 46.184C206.042 44.6639 203.967 42.551 202.523 39.8453C201.078 37.1243 200.356 33.9701 200.356 30.3827C200.356 26.7953 201.078 23.6487 202.523 20.943C203.967 18.222 206.042 16.1091 208.747 14.6042C211.453 13.0841 214.706 12.3241 218.506 12.3241C221.942 12.3241 224.913 12.9473 227.422 14.1938C229.945 15.4251 231.898 17.1732 233.282 19.4381C234.665 21.6878 235.364 24.3328 235.379 27.3729H223.705C223.538 25.5336 223.006 24.1352 222.109 23.1775C221.227 22.2047 220.087 21.7182 218.689 21.7182C217.594 21.7182 216.637 22.0374 215.816 22.6759C214.995 23.2991 214.356 24.2492 213.9 25.526C213.444 26.7877 213.216 28.3762 213.216 30.2915C213.216 32.2068 213.444 33.8029 213.9 35.0798C214.356 36.3415 214.995 37.2915 215.816 37.9299C216.637 38.5532 217.594 38.8648 218.689 38.8648C219.616 38.8648 220.437 38.652 221.151 38.2264C221.866 37.7855 222.443 37.1471 222.884 36.3111C223.34 35.4598 223.614 34.4262 223.705 33.2101H235.379C235.334 36.2959 234.627 38.9864 233.259 41.2817C231.891 43.5619 229.953 45.3252 227.444 46.5716C224.951 47.8181 221.972 48.4413 218.506 48.4413Z" fill="white"/>
<path opacity="0.4" d="M209.243 12.8783V21.9988H186.168V12.8783H209.243ZM190.638 4.48743H203.224V36.6372C203.224 37.1237 203.307 37.5341 203.475 37.8685C203.642 38.1877 203.9 38.431 204.25 38.5982C204.599 38.7502 205.048 38.8262 205.595 38.8262C205.975 38.8262 206.416 38.7806 206.918 38.6894C207.434 38.5982 207.814 38.5222 208.058 38.4614L209.882 47.3083C209.319 47.4755 208.514 47.6807 207.465 47.9239C206.431 48.1671 205.2 48.3267 203.771 48.4027C200.883 48.5547 198.458 48.2583 196.497 47.5135C194.537 46.7534 193.062 45.5602 192.074 43.9337C191.086 42.3072 190.607 40.2703 190.638 37.8229V4.48743Z" fill="white"/>
<path opacity="0.5" d="M170.524 48.3501C168.29 48.3501 166.314 47.9853 164.596 47.2557C162.893 46.5108 161.556 45.386 160.583 43.8811C159.61 42.3762 159.124 40.4609 159.124 38.1352C159.124 36.2199 159.45 34.5858 160.104 33.2329C160.758 31.8648 161.67 30.7475 162.84 29.8811C164.011 29.0146 165.371 28.3534 166.922 27.8974C168.487 27.4414 170.175 27.1449 171.983 27.0081C173.944 26.8561 175.518 26.6737 176.703 26.4609C177.904 26.2329 178.771 25.9213 179.303 25.526C179.835 25.1156 180.101 24.576 180.101 23.9072V23.8159C180.101 22.9039 179.751 22.2047 179.052 21.7182C178.353 21.2318 177.456 20.9886 176.361 20.9886C175.16 20.9886 174.18 21.2546 173.42 21.7866C172.675 22.3035 172.227 23.1015 172.075 24.1808H160.492C160.644 22.0526 161.32 20.0917 162.521 18.298C163.737 16.4891 165.508 15.045 167.834 13.9658C170.159 12.8713 173.063 12.3241 176.544 12.3241C179.052 12.3241 181.302 12.6205 183.293 13.2133C185.284 13.791 186.979 14.6042 188.378 15.6531C189.776 16.6867 190.84 17.9028 191.57 19.3013C192.315 20.6846 192.687 22.1895 192.687 23.8159V47.8029H180.922V42.8778H180.648C179.949 44.1851 179.097 45.2416 178.094 46.0472C177.106 46.8529 175.974 47.4381 174.697 47.8029C173.435 48.1677 172.044 48.3501 170.524 48.3501ZM174.628 40.4153C175.586 40.4153 176.483 40.2177 177.319 39.8225C178.17 39.4272 178.862 38.8572 179.394 38.1124C179.926 37.3675 180.192 36.4631 180.192 35.399V32.4804C179.858 32.6172 179.5 32.7465 179.12 32.8681C178.755 32.9897 178.36 33.1037 177.935 33.2101C177.524 33.3165 177.083 33.4153 176.612 33.5065C176.156 33.5977 175.677 33.6813 175.176 33.7573C174.203 33.9093 173.405 34.1601 172.782 34.5098C172.173 34.8442 171.717 35.2622 171.413 35.7638C171.125 36.2503 170.98 36.7975 170.98 37.4055C170.98 38.3784 171.322 39.1232 172.006 39.64C172.69 40.1569 173.564 40.4153 174.628 40.4153Z" fill="white"/>
<path opacity="0.8" d="M40.1912 47.9954L31.4355 12.9727H44.0219L48.0349 34.3147H48.3085L52.7776 12.9727H64.9991L69.6505 34.1323H69.9241L73.7547 12.9727H86.3411L77.5854 47.9954H63.9958L59.0707 29.2072H58.7059L53.7808 47.9954H40.1912Z" fill="white"/>
<path opacity="0.7" d="M82.5326 47.9954L73.7769 12.9727H86.3632L90.3762 34.3147H90.6498L95.1189 12.9727H107.34L111.992 34.1323H112.265L116.096 12.9727H128.682L119.927 47.9954H106.337L101.412 29.2072H101.047L96.1221 47.9954H82.5326Z" fill="white"/>
<path opacity="0.6" d="M124.876 47.9954L116.12 12.9727H128.706L132.719 34.3147H132.993L137.462 12.9727H149.684L154.335 34.1323H154.609L158.439 12.9727H171.026L162.27 47.9954H148.68L143.755 29.2072H143.39L138.465 47.9954H124.876Z" fill="white"/>
<path opacity="0.9" d="M26.8305 15.7899C26.7089 14.2698 26.1388 13.0842 25.1204 12.2329C24.1171 11.3817 22.5894 10.956 20.5373 10.956C19.23 10.956 18.1584 11.1157 17.3223 11.4349C16.5015 11.7389 15.8934 12.1569 15.4982 12.6889C15.103 13.221 14.8978 13.829 14.8826 14.513C14.8522 15.0755 14.951 15.5847 15.179 16.0407C15.4222 16.4816 15.8022 16.8844 16.3191 17.2492C16.8359 17.5988 17.4971 17.918 18.3028 18.2069C19.1084 18.4957 20.0661 18.7541 21.1757 18.9821L25.0064 19.8029C27.5905 20.3502 29.8022 21.0722 31.6415 21.9691C33.4808 22.8659 34.9857 23.9224 36.1562 25.1385C37.3267 26.3393 38.1855 27.6922 38.7327 29.1971C39.2952 30.702 39.584 32.3437 39.5992 34.1222C39.584 37.1927 38.8163 39.7921 37.2963 41.9202C35.7762 44.0483 33.6024 45.6672 30.7751 46.7769C27.9629 47.8865 24.5807 48.4414 20.6285 48.4414C16.5699 48.4414 13.0281 47.8409 10.0031 46.6401C6.99334 45.4392 4.65241 43.5923 2.98031 41.0994C1.32342 38.5912 0.487369 35.3838 0.472168 31.4772H12.5113C12.5873 32.9061 12.9445 34.107 13.5829 35.0798C14.2213 36.0527 15.1182 36.7899 16.2735 37.2915C17.4439 37.7932 18.8348 38.044 20.4461 38.044C21.799 38.044 22.9314 37.8768 23.8435 37.5424C24.7555 37.2079 25.4472 36.7443 25.9184 36.1515C26.3896 35.5586 26.6329 34.8822 26.6481 34.1222C26.6329 33.4077 26.3972 32.7845 25.9412 32.2525C25.5004 31.7052 24.7707 31.2188 23.7523 30.7932C22.7338 30.3523 21.3582 29.9419 19.6253 29.5619L14.9738 28.5586C10.8392 27.6618 7.57857 26.1645 5.19204 24.0668C2.8207 21.9539 1.64263 19.0733 1.65784 15.4251C1.64263 12.4609 2.43308 9.86918 4.02917 7.64986C5.64046 5.41533 7.86739 3.67483 10.7099 2.42836C13.5677 1.18189 16.8435 0.558655 20.5373 0.558655C24.3071 0.558655 27.5677 1.18949 30.3191 2.45116C33.0704 3.71283 35.1909 5.49134 36.6806 7.78667C38.1855 10.0668 38.9455 12.7345 38.9608 15.7899H26.8305Z" fill="white"/>
</svg>
