<svg width="152" height="152" viewBox="0 0 152 152" fill="none" xmlns="http://www.w3.org/2000/svg">
<g opacity="0.4">
<path d="M131.222 5H20.7778C12.064 5 5 12.064 5 20.7778V131.222C5 139.936 12.064 147 20.7778 147H131.222C139.936 147 147 139.936 147 131.222V20.7778C147 12.064 139.936 5 131.222 5Z" stroke="white" stroke-width="10" stroke-linecap="round" stroke-linejoin="round"/>
<path d="M48.389 60.2222C54.9244 60.2222 60.2223 54.9243 60.2223 48.3889C60.2223 41.8535 54.9244 36.5556 48.389 36.5556C41.8536 36.5556 36.5557 41.8535 36.5557 48.3889C36.5557 54.9243 41.8536 60.2222 48.389 60.2222Z" stroke="white" stroke-width="10" stroke-linecap="round" stroke-linejoin="round"/>
<path d="M147 99.6667L107.556 60.2222L20.7778 147" stroke="white" stroke-width="10" stroke-linecap="round" stroke-linejoin="round"/>
</g>
</svg>
