<?xml version="1.0" standalone="no"?>
<!DOCTYPE svg PUBLIC "-//W3C//DTD SVG 20010904//EN"
 "http://www.w3.org/TR/2001/REC-SVG-20010904/DTD/svg10.dtd">
<svg version="1.0" xmlns="http://www.w3.org/2000/svg"
 width="487.000000pt" height="487.000000pt" viewBox="0 0 487.000000 487.000000"
 preserveAspectRatio="xMidYMid meet">
<metadata>
Created by potrace 1.14, written by Peter Selinger 2001-2017
</metadata>
<g transform="translate(0.000000,487.000000) scale(0.100000,-0.100000)"
fill="#000000" stroke="none">
<path d="M3171 4437 l-655 -432 -80 80 c-94 94 -169 142 -281 181 -72 25 -93
28 -210 28 -114 0 -140 -4 -213 -28 -169 -56 -310 -133 -484 -263 -373 -282
-461 -621 -226 -878 100 -110 191 -140 398 -132 220 9 326 40 925 272 651 252
887 321 1260 371 171 22 491 23 632 1 208 -33 404 -95 560 -176 l73 -38 0 691
c0 640 -2 693 -18 712 -35 44 -40 44 -544 43 l-483 -1 -654 -431z"/>
<path d="M3335 1941 c-212 -38 -353 -85 -926 -307 -468 -180 -606 -228 -831
-283 -248 -62 -390 -82 -639 -88 -374 -10 -600 34 -852 164 -39 21 -75 39 -79
41 -5 2 -8 -313 -8 -700 0 -651 2 -705 18 -724 33 -41 52 -44 304 -44 l243 0
730 480 730 479 24 -32 c46 -61 218 -222 274 -255 241 -144 488 -168 779 -76
336 106 707 385 846 634 115 208 96 441 -47 593 -119 126 -305 164 -566 118z"/>
</g>
</svg>
